<svg width="24" height="24" viewBox="0 0 24 24" fill="none" xmlns="http://www.w3.org/2000/svg">
<path fill-rule="evenodd" clip-rule="evenodd" d="M4.25581 6.97674C4.25581 5.47401 5.47401 4.25581 6.97674 4.25581H13.6744C14.0212 4.25581 14.3023 3.97469 14.3023 3.62791C14.3023 3.28113 14.0212 3 13.6744 3H6.97674C4.78045 3 3 4.78045 3 6.97674V17.0233C3 19.2196 4.78045 21 6.97674 21H17.0233C19.2196 21 21 19.2196 21 17.0233V10.3256C21 9.9788 20.7189 9.69767 20.3721 9.69767C20.0253 9.69767 19.7442 9.9788 19.7442 10.3256V13.2634C19.7064 13.2332 19.6672 13.2045 19.6265 13.1774L17.6332 11.8485C16.3049 10.9629 14.5363 11.1381 13.4075 12.2669L10.5925 15.0819C9.46367 16.2107 7.69509 16.3859 6.36686 15.5004L4.25581 14.093V6.97674ZM18.4884 3.62791C18.4884 3.28113 18.2072 3 17.8605 3C17.5137 3 17.2326 3.28113 17.2326 3.62791V5.51163H15.3488C15.0021 5.51163 14.7209 5.79275 14.7209 6.13953C14.7209 6.48632 15.0021 6.76744 15.3488 6.76744H17.2326V8.65116C17.2326 8.99794 17.5137 9.27907 17.8605 9.27907C18.2072 9.27907 18.4884 8.99794 18.4884 8.65116V6.76744H20.3721C20.7189 6.76744 21 6.48632 21 6.13953C21 5.79275 20.7189 5.51163 20.3721 5.51163H18.4884V3.62791ZM9.06977 11.1628C10.2257 11.1628 11.1628 10.2257 11.1628 9.06977C11.1628 7.91382 10.2257 6.97674 9.06977 6.97674C7.91382 6.97674 6.97674 7.91382 6.97674 9.06977C6.97674 10.2257 7.91382 11.1628 9.06977 11.1628Z" fill="currentColor" />
</svg>
