<svg width="24" height="24" viewBox="0 0 24 24" fill="none" xmlns="http://www.w3.org/2000/svg">
<path d="M21 6.37784C21 6.57676 20.921 6.76752 20.7803 6.90818C20.6397 7.04883 20.4489 7.12785 20.25 7.12785C20.0511 7.12785 19.8603 7.04883 19.7197 6.90818C19.579 6.76752 19.5 6.57676 19.5 6.37784C19.4916 6.11569 19.4303 5.85794 19.3196 5.62015C19.2089 5.38235 19.0513 5.16943 18.8561 4.99422C18.6609 4.81901 18.4322 4.68515 18.1839 4.60069C17.9356 4.51624 17.6728 4.48295 17.4112 4.50283C17.2123 4.50283 17.0215 4.42381 16.8809 4.28316C16.7402 4.14251 16.6612 3.95174 16.6612 3.75283C16.6612 3.55391 16.7402 3.36315 16.8809 3.22249C17.0215 3.08184 17.2123 3.00282 17.4112 3.00282C17.8696 2.98427 18.327 3.05732 18.7568 3.21769C19.1866 3.37805 19.5801 3.62252 19.9143 3.93679C20.2484 4.25106 20.5166 4.62881 20.703 5.04796C20.8894 5.4671 20.9904 5.91921 21 6.37784Z" fill="currentColor" />
<path d="M4.50001 6.37784C4.50837 6.11569 4.56973 5.85794 4.6804 5.62015C4.79107 5.38235 4.94875 5.16943 5.14393 4.99422C5.33911 4.81901 5.56775 4.68515 5.81607 4.60069C6.06439 4.51624 6.32724 4.48295 6.58877 4.50283C6.78769 4.50283 6.97845 4.42381 7.11911 4.28316C7.25976 4.14251 7.33878 3.95174 7.33878 3.75283C7.33878 3.55391 7.25976 3.36315 7.11911 3.22249C6.97845 3.08184 6.78769 3.00282 6.58877 3.00282C6.13042 2.98427 5.67296 3.05732 5.24318 3.21769C4.81339 3.37805 4.4199 3.62252 4.08573 3.93679C3.75156 4.25106 3.48341 4.62881 3.29699 5.04796C3.11056 5.4671 3.0096 5.91921 3 6.37784C3 6.57676 3.07902 6.76752 3.21967 6.90818C3.36032 7.04883 3.55109 7.12785 3.75 7.12785C3.94892 7.12785 4.13969 7.04883 4.28034 6.90818C4.42099 6.76752 4.50001 6.57676 4.50001 6.37784Z" fill="currentColor" />
<path d="M18.2394 18.1349C19.2319 16.989 19.8889 15.5914 20.138 14.096C20.387 12.6006 20.2184 11.0655 19.6508 9.65979C19.0831 8.25408 18.1385 7.03234 16.9209 6.12917C15.7033 5.22601 14.26 4.67647 12.7501 4.5411V3.75284C12.7501 3.55393 12.6711 3.36316 12.5304 3.22251C12.3898 3.08186 12.199 3.00284 12.0001 3.00284C11.8012 3.00284 11.6104 3.08186 11.4698 3.22251C11.3291 3.36316 11.2501 3.55393 11.2501 3.75284V4.5411C9.74016 4.67647 8.29689 5.22601 7.07931 6.12917C5.86172 7.03234 4.91707 8.25408 4.34944 9.65979C3.7818 11.0655 3.61321 12.6006 3.86224 14.096C4.11127 15.5914 4.76825 16.989 5.76081 18.1349C5.36883 18.3288 5.04128 18.6319 4.81759 19.0077C4.59391 19.3835 4.48363 19.8159 4.50005 20.253C4.50005 20.4519 4.57907 20.6426 4.71972 20.7833C4.86037 20.9239 5.05114 21.003 5.25006 21.003C5.44897 21.003 5.63974 20.9239 5.78039 20.7833C5.92104 20.6426 6.00006 20.4519 6.00006 20.253C5.99383 20.0218 6.07682 19.7971 6.23182 19.6255C6.38683 19.4538 6.60195 19.3485 6.83257 19.3312C6.88415 19.3214 6.93447 19.3058 6.98257 19.2847C8.41923 20.399 10.1857 21.0037 12.0038 21.0037C13.822 21.0037 15.5885 20.399 17.0251 19.2847C17.069 19.3049 17.1147 19.321 17.1616 19.3327C17.3931 19.3485 17.6094 19.453 17.7657 19.6245C17.9219 19.7959 18.0059 20.0211 18.0001 20.253C18.0001 20.4519 18.0792 20.6426 18.2198 20.7833C18.3605 20.9239 18.5512 21.003 18.7501 21.003C18.9491 21.003 19.1398 20.9239 19.2805 20.7833C19.4211 20.6426 19.5001 20.4519 19.5001 20.253C19.5166 19.8159 19.4063 19.3835 19.1826 19.0077C18.9589 18.6319 18.6314 18.3288 18.2394 18.1349ZM14.7804 14.7832C14.6397 14.9238 14.449 15.0028 14.2501 15.0028C14.0512 15.0028 13.8605 14.9238 13.7199 14.7832L11.4698 12.5332C11.3292 12.3925 11.2501 12.2018 11.2501 12.0029V8.25287C11.2501 8.05396 11.3291 7.86319 11.4698 7.72254C11.6104 7.58189 11.8012 7.50287 12.0001 7.50287C12.199 7.50287 12.3898 7.58189 12.5304 7.72254C12.6711 7.86319 12.7501 8.05396 12.7501 8.25287V11.6924L14.7804 13.7227C14.921 13.8633 15 14.054 15 14.2529C15 14.4518 14.921 14.6425 14.7804 14.7832Z" fill="currentColor" />
</svg>
