<svg width="20" height="20" viewBox="0 0 20 20" fill="none" xmlns="http://www.w3.org/2000/svg">
<path d="M10 0C4.47734 0 0 4.47734 0 10C0 15.5227 4.47734 20 10 20C15.5227 20 20 15.5227 20 10C20 4.47734 15.5227 0 10 0ZM11.2477 15.0664C11.2477 15.3285 11.1105 15.466 10.8504 15.4664H9.88047C9.55 15.4664 9.21953 15.4664 8.88906 15.4664C8.66484 15.4664 8.51484 15.3219 8.51406 15.0984C8.59609 12.5246 8.05039 12.7211 9.9082 12.7316C11.6934 12.7184 11.1656 12.5438 11.2477 15.0664ZM13.4059 9.59766C12.9906 10.1836 12.2863 10.4398 11.7352 10.868C10.9594 11.5234 11.4453 12.1391 10.8105 12.1875C10.4871 12.1875 10.1635 12.1875 9.83984 12.1875C9.51641 12.1875 9.19297 12.1852 8.86953 12.1875C8.60547 12.2043 8.55391 11.9031 8.51797 11.7051C8.42617 10.8504 8.78164 10.1867 9.41055 9.63984C9.85195 9.21758 10.4559 9.04102 10.923 8.65977C11.3582 8.28438 11.3137 7.65078 10.85 7.31719C10.3453 6.95547 9.54219 6.91758 9.02461 7.25234C8.65859 7.50898 8.38867 7.88672 8.09883 8.22383C7.92773 8.42734 7.75859 8.44922 7.54727 8.28906C7.10326 7.9526 6.66055 7.61497 6.21914 7.27617C6.03242 7.1332 6.00781 6.96758 6.12969 6.76836C7.35234 4.53398 10.4609 3.80742 12.5 5.36211C13.8637 6.25 14.4684 8.25078 13.4059 9.59883V9.59766Z" fill="currentColor"/>
</svg>
