<svg
  width="20"
  height="20"
  viewBox="0 0 20 20"
  fill="none"
  xmlns="http://www.w3.org/2000/svg"
>
  <path
    d="M0.899902 3.49948C0.899902 2.80992 1.17383 2.1486 1.66142 1.66101C2.14902 1.17341 2.81034 0.899483 3.4999 0.899483H12.5999C13.2895 0.899483 13.9508 1.17341 14.4384 1.66101C14.926 2.1486 15.1999 2.80992 15.1999 3.49948V12.5995H19.0999V15.1995C19.0999 16.2338 18.689 17.2258 17.9576 17.9572C17.2262 18.6886 16.2342 19.0995 15.1999 19.0995H4.7999C3.76556 19.0995 2.77358 18.6886 2.04219 17.9572C1.31079 17.2258 0.899902 16.2338 0.899902 15.1995V3.49948ZM15.1999 17.7995C15.8895 17.7995 16.5508 17.5256 17.0384 17.038C17.526 16.5504 17.7999 15.889 17.7999 15.1995V13.8995H15.1999V17.7995ZM5.4499 4.79948C5.27751 4.79948 5.11218 4.86797 4.99028 4.98986C4.86839 5.11176 4.7999 5.27709 4.7999 5.44948C4.7999 5.62187 4.86839 5.7872 4.99028 5.9091C5.11218 6.031 5.27751 6.09948 5.4499 6.09948H10.6499C10.8223 6.09948 10.9876 6.031 11.1095 5.9091C11.2314 5.7872 11.2999 5.62187 11.2999 5.44948C11.2999 5.27709 11.2314 5.11176 11.1095 4.98986C10.9876 4.86797 10.8223 4.79948 10.6499 4.79948H5.4499ZM5.4499 8.69948C5.27751 8.69948 5.11218 8.76797 4.99028 8.88986C4.86839 9.01176 4.7999 9.17709 4.7999 9.34948C4.7999 9.52187 4.86839 9.68721 4.99028 9.8091C5.11218 9.931 5.27751 9.99948 5.4499 9.99948H10.6499C10.8223 9.99948 10.9876 9.931 11.1095 9.8091C11.2314 9.68721 11.2999 9.52187 11.2999 9.34948C11.2999 9.17709 11.2314 9.01176 11.1095 8.88986C10.9876 8.76797 10.8223 8.69948 10.6499 8.69948H5.4499ZM5.4499 12.5995C5.27751 12.5995 5.11218 12.668 4.99028 12.7899C4.86839 12.9118 4.7999 13.0771 4.7999 13.2495C4.7999 13.4219 4.86839 13.5872 4.99028 13.7091C5.11218 13.831 5.27751 13.8995 5.4499 13.8995H8.0499C8.22229 13.8995 8.38762 13.831 8.50952 13.7091C8.63142 13.5872 8.6999 13.4219 8.6999 13.2495C8.6999 13.0771 8.63142 12.9118 8.50952 12.7899C8.38762 12.668 8.22229 12.5995 8.0499 12.5995H5.4499Z"
    fill="currentColor"
  />
</svg>