<svg width="20" height="20" viewBox="0 0 26 26" fill="none" xmlns="http://www.w3.org/2000/svg">
<path d="M13.0004 12.999C11.2587 12.999 9.76777 12.3788 8.52749 11.1386C7.28721 9.89828 6.66707 8.40731 6.66707 6.66564C6.66707 4.92397 7.28721 3.433 8.52749 2.19272C9.76777 0.952445 11.2587 0.332306 13.0004 0.332306C14.7421 0.332306 16.233 0.952445 17.4733 2.19272C18.7136 3.433 19.3337 4.92397 19.3337 6.66564C19.3337 8.40731 18.7136 9.89828 17.4733 11.1386C16.233 12.3788 14.7421 12.999 13.0004 12.999ZM0.33374 22.499V21.2323C0.33374 20.3351 0.564643 19.5104 1.02645 18.7584C1.48825 18.0063 2.1018 17.4323 2.86707 17.0365C4.50319 16.2184 6.16569 15.6049 7.85457 15.1958C9.54346 14.7868 11.2587 14.5823 13.0004 14.5823C14.7421 14.5823 16.4574 14.7868 18.1462 15.1958C19.8351 15.6049 21.4976 16.2184 23.1337 17.0365C23.899 17.4323 24.5126 18.0063 24.9744 18.7584C25.4362 19.5104 25.6671 20.3351 25.6671 21.2323V22.499C25.6671 23.3698 25.357 24.1153 24.7369 24.7354C24.1167 25.3556 23.3712 25.6656 22.5004 25.6656H3.50041C2.62957 25.6656 1.88409 25.3556 1.26395 24.7354C0.64381 24.1153 0.33374 23.3698 0.33374 22.499Z" fill="currentColor"/>
</svg>
