<svg width="20" height="20" viewBox="0 0 20 20" fill="none" xmlns="http://www.w3.org/2000/svg">
<path d="M17.973 11.1703V11.1982C17.9719 16.0604 13.9475 20.0012 8.98431 20C4.02113 19.9989 -0.00139427 16.0563 -0.000243894 11.1941C0.000839976 6.61389 3.58646 2.7996 8.24581 2.42215C8.54043 2.38969 8.82264 2.54767 8.94366 2.81282C9.07033 3.07412 9.01935 3.38489 8.81549 3.59415C6.73924 5.66898 6.77301 8.99987 8.89091 11.0339C11.0088 13.0679 14.4088 13.0348 16.4851 10.96C16.566 10.8791 16.6443 10.7957 16.7197 10.7098C16.9085 10.4829 17.2266 10.4035 17.5031 10.5145C17.7861 10.613 17.9746 10.876 17.973 11.1703ZM11.2973 1.39526H12.8967L10.7069 4.57268C10.4869 4.89217 10.573 5.32586 10.8991 5.54137C11.0167 5.61911 11.1554 5.66065 11.2973 5.66067H14.2368C14.6301 5.66067 14.9489 5.34833 14.9489 4.96305C14.9489 4.57777 14.6301 4.26543 14.2368 4.26543H12.6373L14.8271 1.08802C15.0471 0.768531 14.9611 0.334835 14.635 0.119331C14.5173 0.041591 14.3787 4.81386e-05 14.2367 3.05176e-05H11.2972C10.9039 3.05176e-05 10.5851 0.312364 10.5851 0.697646C10.5851 1.08293 10.904 1.39526 11.2973 1.39526ZM19.2875 6.95712H18.5316L19.8779 5.00393C20.0979 4.68444 20.0118 4.25075 19.6857 4.03524C19.5681 3.9575 19.4294 3.91596 19.2875 3.91594H16.9551C16.5618 3.91594 16.243 4.22828 16.243 4.61356C16.243 4.99884 16.5618 5.31117 16.9551 5.31117H17.9475L16.6012 7.26436C16.3812 7.58385 16.4672 8.01754 16.7933 8.23305C16.911 8.31079 17.0497 8.35233 17.1916 8.35235H19.2875C19.6808 8.35235 19.9996 8.04001 19.9996 7.65473C19.9996 7.26945 19.6808 6.95712 19.2875 6.95712Z" fill="currentColor"/>
</svg>
