<svg width="24" height="24" viewBox="0 0 24 24" fill="none" xmlns="http://www.w3.org/2000/svg">
<mask id="mask0_2311_24208" style="mask-type:alpha" maskUnits="userSpaceOnUse" x="0" y="0" width="24" height="24">
<rect width="24" height="24" fill="currentColor"/>
</mask>
<g mask="url(#mask0_2311_24208)">
<path d="M7 22C6.71667 22 6.47917 21.9042 6.2875 21.7125C6.09583 21.5208 6 21.2833 6 21V12.85C5.1 12.6167 4.375 12.1417 3.825 11.425C3.275 10.7083 3 9.9 3 9V3C3 2.71667 3.09583 2.47917 3.2875 2.2875C3.47917 2.09583 3.71667 2 4 2C4.28333 2 4.52083 2.09583 4.7125 2.2875C4.90417 2.47917 5 2.71667 5 3V8H6V3C6 2.71667 6.09583 2.47917 6.2875 2.2875C6.47917 2.09583 6.71667 2 7 2C7.28333 2 7.52083 2.09583 7.7125 2.2875C7.90417 2.47917 8 2.71667 8 3V8H9V3C9 2.71667 9.09583 2.47917 9.2875 2.2875C9.47917 2.09583 9.71667 2 10 2C10.2833 2 10.5208 2.09583 10.7125 2.2875C10.9042 2.47917 11 2.71667 11 3V9C11 9.9 10.725 10.7083 10.175 11.425C9.625 12.1417 8.9 12.6167 8 12.85V21C8 21.2833 7.90417 21.5208 7.7125 21.7125C7.52083 21.9042 7.28333 22 7 22ZM17 22C16.7167 22 16.4792 21.9042 16.2875 21.7125C16.0958 21.5208 16 21.2833 16 21V12.475C15.1 12.175 14.375 11.5458 13.825 10.5875C13.275 9.62917 13 8.54167 13 7.325C13 5.84167 13.3917 4.58333 14.175 3.55C14.9583 2.51667 15.9 2 17 2C18.1 2 19.0417 2.52083 19.825 3.5625C20.6083 4.60417 21 5.86667 21 7.35C21 8.56667 20.725 9.65 20.175 10.6C19.625 11.55 18.9 12.175 18 12.475V21C18 21.2833 17.9042 21.5208 17.7125 21.7125C17.5208 21.9042 17.2833 22 17 22Z" fill="currentColor" />
</g>
</svg>
