<svg
  width="16"
  height="16"
  viewBox="0 0 16 16"
  fill="none"
  xmlns="http://www.w3.org/2000/svg"
>
  <path
    d="M14.2742 7.67854L9.30315 2.72599C9.00126 2.42462 8.51824 2.42462 8.22642 2.72599C7.92453 3.02736 7.92453 3.50955 8.22642 3.80087L12.4327 8L8.22642 12.1991C7.92453 12.5005 7.92453 12.9827 8.22642 13.274C8.5283 13.5753 9.01132 13.5753 9.30314 13.274L14.2742 8.31142C14.4453 8.14064 14.4453 7.85936 14.2742 7.67854Z"
    fill="currentColor"
    stroke="currentColor"
    strokeWidth="0.3"
  />
  <path
    d="M7.87163 7.67854L2.90057 2.72599C2.59868 2.42462 2.11566 2.42462 1.82384 2.72599C1.52195 3.02736 1.52195 3.50955 1.82384 3.80087L6.03012 8L1.82384 12.1991C1.52195 12.5005 1.52195 12.9827 1.82384 13.274C2.12572 13.5753 2.60874 13.5753 2.90056 13.274L7.87163 8.31142C8.0427 8.14064 8.0427 7.85936 7.87163 7.67854Z"
    fill="currentColor"
    stroke="currentColor"
    strokeWidth="0.3"
  />
</svg>