<svg
	width="19"
	height="20"
	viewBox="0 0 19 20"
	fill="none"
	xmlns="http://www.w3.org/2000/svg"
>
	<path
		d="M8.1508 8.32782C10.3395 8.32782 12.1139 6.51942 12.1139 4.28865C12.1139 2.05788 10.3395 0.249481 8.1508 0.249481C5.96207 0.249481 4.18774 2.05788 4.18774 4.28865C4.18774 6.51942 5.96207 8.32782 8.1508 8.32782Z"
		fill="currentColor"
	/>
	<path d="M10.6919 15.7113H14.9862V16.5867H10.6919V15.7113Z" fill="currentColor" />
	<path
		d="M7.01062 16.9631V18.8388C7.01062 19.0047 7.07525 19.1637 7.1903 19.281C7.30535 19.3982 7.46139 19.4641 7.62409 19.4641H18.0532C18.2159 19.4641 18.3719 19.3982 18.487 19.281C18.602 19.1637 18.6667 19.0047 18.6667 18.8388V12.5862C18.6667 12.4204 18.602 12.2614 18.487 12.1441C18.3719 12.0269 18.2159 11.961 18.0532 11.961H13.7589V11.0419C13.7589 10.876 13.6942 10.717 13.5792 10.5997C13.4641 10.4825 13.3081 10.4166 13.1454 10.4166C12.9827 10.4166 12.8266 10.4825 12.7116 10.5997C12.5965 10.717 12.5319 10.876 12.5319 11.0419V11.961H11.305V9.72256C10.2625 9.54871 9.20799 9.46088 8.15168 9.45996C5.82219 9.44986 3.5188 9.95993 1.40344 10.9543C1.05528 11.1218 0.761566 11.3875 0.557137 11.72C0.352708 12.0525 0.24615 12.4377 0.250106 12.8301V16.9631H7.01062ZM17.4397 18.2136H8.23757V13.2115H12.5319V13.4741C12.5319 13.6399 12.5965 13.799 12.7116 13.9162C12.8266 14.0335 12.9827 14.0994 13.1454 14.0994C13.3081 14.0994 13.4641 14.0335 13.5792 13.9162C13.6942 13.799 13.7589 13.6399 13.7589 13.4741V13.2115H17.4397V18.2136Z"
		fill="currentColor"
	/>
</svg>