<svg
  width="16"
  height="16"
  viewBox="0 0 16 16"
  fill="none"
  xmlns="http://www.w3.org/2000/svg"
>
  <path
    fillRule="evenodd"
    clipRule="evenodd"
    d="M11.414 15.5997C10.334 15.56 7.27325 15.137 4.06775 11.9322C0.863 8.72673 0.44075 5.66673 0.40025 4.58598C0.34025 2.93898 1.60175 1.33923 3.059 0.714479C3.23448 0.638704 3.42665 0.609854 3.61665 0.63076C3.80664 0.651666 3.98794 0.72161 4.14275 0.833729C5.34275 1.70823 6.17075 3.03123 6.88175 4.07148C7.03819 4.30003 7.10508 4.57814 7.06967 4.85283C7.03426 5.12751 6.89903 5.37957 6.68975 5.56098L5.2265 6.64773C5.15581 6.69878 5.10604 6.77375 5.08646 6.85872C5.06687 6.94369 5.07879 7.03288 5.12 7.10973C5.4515 7.71198 6.041 8.60898 6.716 9.28398C7.391 9.95898 8.33075 10.5875 8.975 10.9565C9.05578 11.0018 9.15086 11.0145 9.24069 10.9919C9.33053 10.9693 9.40829 10.9131 9.458 10.835L10.4105 9.38523C10.5856 9.15261 10.8439 8.99678 11.1314 8.95037C11.4188 8.90395 11.7131 8.97055 11.9525 9.13623C13.0078 9.86673 14.2393 10.6805 15.1407 11.8347C15.262 11.9907 15.3391 12.1763 15.364 12.3722C15.389 12.5681 15.3608 12.7672 15.2825 12.9485C14.6547 14.4132 13.0662 15.6605 11.414 15.5997Z"
    fill="currentColor"
  />
</svg>